<svg width="26px" height="14px" viewBox="0 0 26 14" version="1.1" xmlns="http://www.w3.org/2000/svg" xmlns:xlink="http://www.w3.org/1999/xlink">
    <title>Logo</title>
    <g id="Page-1" stroke="none" stroke-width="1" fill="none" fill-rule="evenodd">
        <g id="Main" transform="translate(-25.000000, -123.000000)" fill="#CFBDBD">
            <g id="Logotype" transform="translate(25.000000, 123.000000)">
                <g id="Logo" transform="translate(0.000000, 0.000000)">
                    <g id="Group" transform="translate(0.000000, 0.014608)">
                        <path d="M6.66719521,0 L6.66719521,13.3150253 L6.65751266,13.3150253 C2.98066995,13.3150253 4.50283366e-16,10.3343554 0,6.65751266 C-4.50283366e-16,2.98066995 2.98066995,6.7542505e-16 6.65751266,0 L6.66719521,0 Z" id="Combined-Shape"></path>
                        <polygon id="Rectangle" points="8.14879414 0 13.3343904 0 13.3343904 5.17806541"></polygon>
                        <polygon id="Rectangle" transform="translate(10.741592, 10.725993) scale(1, -1) translate(-10.741592, -10.725993) " points="8.14879414 8.13695992 13.3343904 8.13695992 13.3343904 13.3150253"></polygon>
                    </g>
                    <path d="M19.3488372,0 L19.3495072,0.0146117116 C23.0231231,0.0184026415 26,2.99761827 26,6.67212075 C26,10.3489635 23.0193301,13.3296334 19.3424873,13.3296334 L19.3485349,13.329 L19.3488372,13.3584787 L14.8895349,13.3584787 L14.8895349,0 L19.3488372,0 Z" id="Combined-Shape"></path>
                </g>
            </g>
        </g>
    </g>
</svg>